<svg width="156" height="28" viewBox="0 0 156 28" fill="none" xmlns="http://www.w3.org/2000/svg">
<rect width="24" height="11" rx="4" fill="#A960FF"/>
<rect y="16" width="24" height="12" rx="4" fill="#6366F1"/>
<path d="M40.6158 27.6185H36.1907C36.0636 27.6185 36 27.5549 36 27.4278L36.0381 0.591281C36.0381 0.489555 36.089 0.438692 36.1907 0.438692H40.5777C40.6794 0.438692 40.7302 0.489555 40.7302 0.591281L40.7684 27.4278C40.7684 27.5549 40.7175 27.6185 40.6158 27.6185Z" fill="white"/>
<path d="M48.455 27.6185H44.545C44.3415 27.6185 44.2398 27.5295 44.2398 27.3515L44.2016 0.743869C44.2016 0.540418 44.3034 0.438692 44.5068 0.438692H48.0354L54.6349 15.8311L54.4441 0.743869C54.4441 0.540418 54.5586 0.438692 54.7875 0.438692H58.6594C58.812 0.438692 58.8883 0.540418 58.8883 0.743869L58.9264 27.3896C58.9264 27.5422 58.8629 27.6185 58.7357 27.6185H55.3025L48.5313 13.2371L48.8174 27.3134C48.8174 27.5168 48.6966 27.6185 48.455 27.6185Z" fill="white"/>
<path d="M71.4387 27.6185H66.7084C66.594 27.6185 66.5304 27.5549 66.5177 27.4278L61.1199 0.591281C61.0945 0.489555 61.1453 0.438692 61.2725 0.438692H65.6975C65.7993 0.438692 65.8629 0.489555 65.8883 0.591281L69.0926 18.4823L72.2207 0.591281C72.2461 0.489555 72.3097 0.438692 72.4114 0.438692H76.7793C76.9192 0.438692 76.97 0.489555 76.9319 0.591281L71.6294 27.4278C71.6167 27.5549 71.5531 27.6185 71.4387 27.6185Z" fill="white"/>
<path d="M86.4496 28C85.0636 28 83.7856 27.644 82.6158 26.9319C81.4587 26.2198 80.5241 25.2725 79.812 24.0899C79.1126 22.8946 78.7629 21.5849 78.7629 20.1608L78.8011 7.78202C78.8011 6.33242 79.1508 5.02906 79.8501 3.87193C80.5368 2.70209 81.465 1.76748 82.6349 1.06812C83.8047 0.35604 85.0763 0 86.4496 0C87.8737 0 89.1517 0.349682 90.2834 1.04905C91.4278 1.74841 92.3433 2.68937 93.03 3.87193C93.7293 5.04178 94.079 6.34514 94.079 7.78202L94.1172 20.1608C94.1172 21.5849 93.7738 22.8883 93.0872 24.0708C92.3878 25.2661 91.4596 26.2198 90.3025 26.9319C89.1453 27.644 87.861 28 86.4496 28ZM86.4496 23.2888C87.238 23.2888 87.9246 22.9709 88.5095 22.3351C89.0945 21.6866 89.3869 20.9619 89.3869 20.1608L89.3488 7.78202C89.3488 6.91735 89.0754 6.18619 88.5286 5.58856C87.9818 4.99092 87.2888 4.6921 86.4496 4.6921C85.6485 4.6921 84.9619 4.98456 84.3896 5.56948C83.8174 6.1544 83.5313 6.89192 83.5313 7.78202V20.1608C83.5313 21.0127 83.8174 21.7502 84.3896 22.3733C84.9619 22.9837 85.6485 23.2888 86.4496 23.2888Z" fill="white"/>
<path d="M101.689 27.6185H97.2643C97.1371 27.6185 97.0736 27.5549 97.0736 27.4278L97.1117 0.591281C97.1117 0.489555 97.1626 0.438692 97.2643 0.438692H101.651C101.753 0.438692 101.804 0.489555 101.804 0.591281L101.842 27.4278C101.842 27.5549 101.791 27.6185 101.689 27.6185Z" fill="white"/>
<path d="M112.466 28C111.054 28 109.764 27.644 108.594 26.9319C107.437 26.2198 106.515 25.2661 105.828 24.0708C105.154 22.8629 104.817 21.5213 104.817 20.0463L104.856 7.85831C104.856 6.40872 105.186 5.099 105.847 3.92916C106.509 2.74659 107.418 1.79927 108.575 1.08719C109.745 0.362398 111.042 0 112.466 0C113.916 0 115.206 0.349682 116.338 1.04905C117.482 1.74841 118.391 2.69573 119.065 3.89101C119.752 5.07357 120.095 6.396 120.095 7.85831V9.65123C120.095 9.75295 120.045 9.80381 119.943 9.80381H115.556C115.454 9.80381 115.403 9.75295 115.403 9.65123V7.85831C115.403 6.99364 115.124 6.24977 114.564 5.6267C114.005 5.00363 113.305 4.6921 112.466 4.6921C111.538 4.6921 110.826 5.00999 110.33 5.64578C109.834 6.28156 109.586 7.01907 109.586 7.85831V20.0463C109.586 21 109.866 21.782 110.425 22.3924C110.985 22.99 111.665 23.2888 112.466 23.2888C113.305 23.2888 114.005 22.9582 114.564 22.297C115.124 21.6231 115.403 20.8728 115.403 20.0463V18.2343C115.403 18.1326 115.454 18.0817 115.556 18.0817H119.981C120.083 18.0817 120.134 18.1326 120.134 18.2343V20.0463C120.134 21.5086 119.79 22.8438 119.104 24.0518C118.404 25.247 117.482 26.2071 116.338 26.9319C115.193 27.644 113.903 28 112.466 28Z" fill="white"/>
<path d="M135.755 27.6185H123.128C123.026 27.6185 122.975 27.5549 122.975 27.4278L123.014 0.591281C123.014 0.489555 123.064 0.438692 123.166 0.438692H135.717C135.818 0.438692 135.869 0.502271 135.869 0.629428V4.99728C135.869 5.099 135.818 5.14986 135.717 5.14986H127.706V11.2534H135.717C135.818 11.2534 135.869 11.3043 135.869 11.406L135.907 15.8311C135.907 15.9328 135.856 15.9837 135.755 15.9837H127.706V22.812H135.755C135.856 22.812 135.907 22.8756 135.907 23.0027V27.4659C135.907 27.5677 135.856 27.6185 135.755 27.6185Z" fill="white"/>
<path d="M143.956 27.6185H139.531C139.43 27.6185 139.379 27.5549 139.379 27.4278L139.455 0.591281C139.455 0.489555 139.506 0.438692 139.608 0.438692H147.504C148.916 0.438692 150.213 0.782016 151.395 1.46866C152.578 2.15531 153.519 3.0772 154.218 4.23433C154.93 5.39146 155.286 6.70118 155.286 8.16349C155.286 9.11717 155.14 9.98183 154.847 10.7575C154.555 11.5332 154.212 12.188 153.817 12.7221C153.436 13.2561 153.086 13.6503 152.768 13.9046C154.18 15.4687 154.886 17.3061 154.886 19.4169L154.924 27.4278C154.924 27.5549 154.86 27.6185 154.733 27.6185H150.308C150.206 27.6185 150.155 27.5804 150.155 27.5041V19.4169C150.155 18.4759 149.825 17.6621 149.163 16.9755C148.502 16.2888 147.688 15.9455 146.722 15.9455H144.147L144.109 27.4278C144.109 27.5549 144.058 27.6185 143.956 27.6185ZM147.504 5.11172H144.147V11.2534H147.504C148.305 11.2534 149.017 10.9546 149.64 10.3569C150.276 9.75931 150.594 9.02816 150.594 8.16349C150.594 7.33697 150.289 6.62489 149.678 6.02725C149.068 5.41689 148.343 5.11172 147.504 5.11172Z" fill="white"/>
</svg>
