<svg width="64" height="64" viewBox="0 0 64 64" fill="none" xmlns="http://www.w3.org/2000/svg">
<path d="M32.4968 28.815C36.846 28.815 40.372 25.2892 40.372 20.94C40.372 16.5907 36.846 13.065 32.4968 13.065C28.1476 13.065 24.6218 16.5907 24.6218 20.94C24.6218 25.2892 28.1476 28.815 32.4968 28.815Z" fill="#CBD5E1"/>
<path d="M47.272 42.39C41.1968 50.5648 29.6842 52.2524 21.5092 46.2148C20.0468 45.1272 18.7718 43.8524 17.6843 42.39C17.1593 41.6024 17.0842 40.59 17.4967 39.7649L18.0593 38.6024C19.3718 35.8274 22.1468 34.065 25.2218 34.065H39.8092C42.8092 34.065 45.5468 35.79 46.8968 38.49L47.4968 39.7274C47.872 40.59 47.8344 41.6024 47.272 42.39Z" fill="#CBD5E1"/>
</svg>
